<svg width="100" height="100" viewBox="0 0 100 100" fill="none" xmlns="http://www.w3.org/2000/svg">
<path d="M50 100C77.6142 100 100 77.6142 100 50C100 22.3858 77.6142 0 50 0C22.3858 0 0 22.3858 0 50C0 77.6142 22.3858 100 50 100Z" fill="#A2D5AB"/>
<path d="M50 0V100C77.6143 100 100 77.6143 100 50C100 22.3857 77.6143 0 50 0Z" fill="#39AEA9"/>
<path d="M42.8573 71.8617L21.2122 50.2164L28.7879 42.6406L42.8573 56.7096L69.4264 30.1406L77.0022 37.7164L42.8573 71.8617Z" fill="#F8FAFC"/>
<path d="M50 64.7189L77.0022 37.7164L69.4264 30.1406L50 49.5668V64.7189Z" fill="#E6E6E6"/>
</svg>
