<svg width="100" height="100" viewBox="0 0 100 100" fill="none" xmlns="http://www.w3.org/2000/svg">
<path d="M0 50C0 77.6141 22.3857 100 50 100L54.3478 50L50 0C22.3857 0 0 22.3857 0 50Z" fill="#E36F6F"/>
<path d="M50 0V100C77.6141 100 100 77.6141 100 50C100 22.3859 77.6141 0 50 0Z" fill="#C85C5C"/>
<path d="M31.5536 22.3306L22.3306 31.5536L40.7769 49.9999L22.3306 68.4462L31.5536 77.6692L49.9999 59.2229L54.3477 49.9999L49.9999 40.7769L31.5536 22.3306Z" fill="white"/>
<path d="M77.6693 31.5536L68.4463 22.3306L50 40.7769V59.2229L68.4463 77.6692L77.6693 68.4462L59.223 49.9999L77.6693 31.5536Z" fill="#FFEAC3"/>
</svg>
