<svg width="100" height="100" viewBox="0 0 100 100" fill="none" xmlns="http://www.w3.org/2000/svg">
<g clip-path="url(#clip0_124_2023)">
<path d="M10.9564 94.6672C1.19572 94.6672 -2.79749 87.7511 2.08286 79.2979L41.1264 11.6729C46.0068 3.2197 53.9929 3.2197 58.8732 11.6729L97.9168 79.2979C102.797 87.7511 98.8039 94.6672 89.0432 94.6672H10.9564Z" fill="#FFE89D"/>
<path d="M97.9171 79.2979L58.8736 11.6729C56.4336 7.44614 53.2164 5.339 50 5.33936V94.6672H89.0436C98.8043 94.6672 102.798 87.7511 97.9171 79.2979Z" fill="#F9B15D"/>
<path d="M50.0002 62.5243H42.8573L39.2859 33.9529H50.0002L53.5716 48.2386L50.0002 62.5243Z" fill="white"/>
<path d="M57.1429 62.5243H50V33.9529H60.7143L57.1429 62.5243Z" fill="#FFE89D"/>
<path d="M50 83.9529H42.8572V69.6672H50L53.5715 76.8101L50 83.9529Z" fill="white"/>
<path d="M57.1429 69.6672H50V83.9529H57.1429V69.6672Z" fill="#FFE89D"/>
</g>
<defs>
<clipPath id="clip0_124_2023">
<rect width="100" height="100" fill="white"/>
</clipPath>
</defs>
</svg>
