<svg width="144" height="41" viewBox="0 0 144 41" fill="none" xmlns="http://www.w3.org/2000/svg">
<path d="M28.992 27V10.992H25.584V27H28.992ZM38.6739 27.288C41.8899 27.288 43.6899 25.68 43.6899 23.568C43.6899 18.888 36.8259 20.328 36.8259 18.6C36.8259 17.952 37.5459 17.448 38.6499 17.448C40.0659 17.448 41.3859 18.048 42.0819 18.792L43.3059 16.704C42.1539 15.792 40.5939 15.12 38.6259 15.12C35.5779 15.12 33.8739 16.824 33.8739 18.768C33.8739 23.328 40.7619 21.768 40.7619 23.688C40.7619 24.408 40.1379 24.936 38.8179 24.936C37.3779 24.936 35.6499 24.144 34.8099 23.352L33.4899 25.488C34.7139 26.616 36.6579 27.288 38.6739 27.288ZM51.8154 27V10.992H48.4074V27H51.8154ZM61.2094 27.288C62.4814 27.288 63.2974 26.952 63.7534 26.544L63.1054 24.24C62.9374 24.408 62.5054 24.576 62.0494 24.576C61.3774 24.576 60.9934 24.024 60.9934 23.304V18.072H63.3454V15.408H60.9934V12.24H57.9214V15.408H56.0014V18.072H57.9214V24.12C57.9214 26.184 59.0734 27.288 61.2094 27.288ZM78.0787 27V24H71.3107V10.992H67.9027V27H78.0787ZM87.9834 27.288C89.7834 27.288 91.6074 26.736 92.7594 25.68L91.4154 23.712C90.6714 24.432 89.3034 24.864 88.3194 24.864C86.3514 24.864 85.1754 23.64 84.9834 22.176H93.5994V21.504C93.5994 17.712 91.2474 15.12 87.7914 15.12C84.2634 15.12 81.7914 17.832 81.7914 21.192C81.7914 24.912 84.4554 27.288 87.9834 27.288ZM90.6474 20.112H84.9354C85.0794 18.96 85.8954 17.544 87.7914 17.544C89.8074 17.544 90.5754 19.008 90.6474 20.112ZM102.953 31.704C105.809 31.704 109.217 30.624 109.217 26.208V15.408H106.145V16.896C105.209 15.72 103.961 15.12 102.569 15.12C99.6411 15.12 97.4571 17.232 97.4571 21.024C97.4571 24.888 99.6651 26.928 102.569 26.928C103.985 26.928 105.233 26.256 106.145 25.104V26.28C106.145 28.56 104.417 29.208 102.953 29.208C101.489 29.208 100.265 28.8 99.3291 27.768L97.9611 29.976C99.4251 31.248 100.961 31.704 102.953 31.704ZM103.529 24.216C101.801 24.216 100.601 23.016 100.601 21.024C100.601 19.032 101.801 17.832 103.529 17.832C104.537 17.832 105.641 18.384 106.145 19.152V22.896C105.641 23.64 104.537 24.216 103.529 24.216ZM116.152 14.16C117.16 14.16 117.976 13.344 117.976 12.336C117.976 11.328 117.16 10.536 116.152 10.536C115.168 10.536 114.328 11.328 114.328 12.336C114.328 13.344 115.168 14.16 116.152 14.16ZM117.688 27V15.408H114.64V27H117.688ZM126.998 27.288C128.27 27.288 129.086 26.952 129.542 26.544L128.894 24.24C128.726 24.408 128.294 24.576 127.838 24.576C127.166 24.576 126.782 24.024 126.782 23.304V18.072H129.134V15.408H126.782V12.24H123.71V15.408H121.79V18.072H123.71V24.12C123.71 26.184 124.862 27.288 126.998 27.288ZM136.38 22.104L138.996 21.336C138.756 21.12 138.564 20.712 138.564 20.328C138.564 18.312 142.572 18.048 142.572 14.544C142.572 12.312 140.676 10.752 137.58 10.752C135.516 10.752 133.596 11.592 132.324 13.08L134.268 15.264C135.012 14.376 136.02 13.776 137.22 13.776C138.54 13.776 139.092 14.4 139.092 15.144C139.092 16.8 135.588 17.136 135.588 19.992C135.588 20.832 135.876 21.552 136.38 22.104ZM137.532 27.264C138.588 27.264 139.476 26.376 139.476 25.32C139.476 24.264 138.588 23.376 137.532 23.376C136.476 23.376 135.588 24.264 135.588 25.32C135.588 26.376 136.476 27.264 137.532 27.264Z" fill="white"/>
<rect width="5.05068" height="18.5191" fill="white"/>
<rect x="9.09131" width="5.05068" height="40.4054" fill="white"/>
<rect y="21.8862" width="5.05068" height="18.5191" fill="white"/>
<rect x="37.375" y="35.3545" width="5.05068" height="23.2331" transform="rotate(90 37.375 35.3545)" fill="white"/>
</svg>
