<svg width="156" height="156" viewBox="0 0 156 156" fill="none" xmlns="http://www.w3.org/2000/svg">
<path d="M35.1726 70.8209L0 118.464L33.2536 111.866L36.1978 144.121L68.4314 100.047" fill="#1572A1"/>
<path d="M120.828 70.8208L156 118.464L122.747 111.866L119.802 144.121L87.5687 100.047" fill="#1572A1"/>
<path d="M77.3322 104.779C103.163 104.779 124.103 83.9826 124.103 58.3291C124.103 32.6755 103.163 11.8792 77.3322 11.8792C51.5016 11.8792 30.5617 32.6755 30.5617 58.3291C30.5617 83.9826 51.5016 104.779 77.3322 104.779Z" fill="#90E0EF"/>
<path d="M77.3316 88.1284C93.9025 88.1284 107.336 74.7868 107.336 58.329C107.336 41.8712 93.9025 28.5296 77.3316 28.5296C60.7606 28.5296 47.3271 41.8712 47.3271 58.329C47.3271 74.7868 60.7606 88.1284 77.3316 88.1284Z" fill="#00B4D8"/>
<path d="M85.8531 71V66.71H76.518C82.4554 62.3857 85.6815 58.988 85.6815 55.0755C85.6815 50.511 81.8033 47.7654 76.9299 47.7654C73.7381 47.7654 70.3404 48.9322 68.1096 51.5062L70.8896 54.7323C72.434 53.1193 74.4245 52.0897 77.0328 52.0897C78.9204 52.0897 80.7394 53.085 80.7394 55.0755C80.7394 57.8898 77.9938 60.2578 68.6244 67.1905V71H85.8531Z" fill="white"/>
</svg>
