<svg width="156" height="156" viewBox="0 0 156 156" fill="none" xmlns="http://www.w3.org/2000/svg">
<path d="M35.1726 70.821L0 118.464L33.2536 111.866L36.1978 144.121L68.4314 100.047" fill="#557B83"/>
<path d="M120.828 70.8209L156 118.464L122.747 111.866L119.802 144.121L87.5687 100.047" fill="#557B83"/>
<path d="M77.3322 104.779C103.163 104.779 124.103 83.9826 124.103 58.3291C124.103 32.6755 103.163 11.8792 77.3322 11.8792C51.5016 11.8792 30.5617 32.6755 30.5617 58.3291C30.5617 83.9826 51.5016 104.779 77.3322 104.779Z" fill="#A2D5AB"/>
<path d="M77.3316 88.1284C93.9026 88.1284 107.336 74.7868 107.336 58.329C107.336 41.8712 93.9026 28.5296 77.3316 28.5296C60.7606 28.5296 47.3271 41.8712 47.3271 58.329C47.3271 74.7868 60.7606 88.1284 77.3316 88.1284Z" fill="#39AEA9"/>
<path d="M76.9418 71.4118C82.433 71.4118 85.968 68.6319 85.968 64.6851C85.968 61.2531 82.9478 59.4342 80.614 59.1939C83.1537 58.7478 85.6248 56.8602 85.6248 53.9773C85.6248 50.1678 82.33 47.7654 76.9761 47.7654C72.9607 47.7654 70.0778 49.3098 68.2245 51.4033L70.6612 54.4578C72.2743 52.9134 74.2648 52.0897 76.4613 52.0897C78.8637 52.0897 80.717 52.982 80.717 54.801C80.717 56.4826 79.0353 57.2377 76.4956 57.2377C75.6376 57.2377 74.0589 57.2377 73.6471 57.2034V61.5963C73.9903 61.562 75.5347 61.5277 76.4956 61.5277C79.6874 61.5277 81.0945 62.3514 81.0945 64.1703C81.0945 65.8863 79.5501 67.0875 76.7702 67.0875C74.5394 67.0875 72.034 66.1266 70.4553 64.4792L67.9156 67.7396C69.5973 69.7988 72.7204 71.4118 76.9418 71.4118Z" fill="white"/>
</svg>
