<svg width="156" height="156" viewBox="0 0 156 156" fill="none" xmlns="http://www.w3.org/2000/svg">
<path d="M35.1726 70.821L0 118.464L33.2536 111.866L36.1978 144.121L68.4314 100.047" fill="#C85C5C"/>
<path d="M120.828 70.8209L156 118.464L122.747 111.866L119.802 144.121L87.5687 100.047" fill="#C85C5C"/>
<path d="M77.3322 104.779C103.163 104.779 124.103 83.9826 124.103 58.3291C124.103 32.6755 103.163 11.8792 77.3322 11.8792C51.5016 11.8792 30.5617 32.6755 30.5617 58.3291C30.5617 83.9826 51.5016 104.779 77.3322 104.779Z" fill="#FBD148"/>
<path d="M77.3316 88.1284C93.9026 88.1284 107.336 74.7868 107.336 58.329C107.336 41.8712 93.9026 28.5296 77.3316 28.5296C60.7606 28.5296 47.3271 41.8712 47.3271 58.329C47.3271 74.7868 60.7606 88.1284 77.3316 88.1284Z" fill="#F9975D"/>
<path d="M81.0423 71.25V48.2118H76.7593L69.5059 55.4998L72.3036 58.4357L76.1376 54.5326V71.25H81.0423Z" fill="white"/>
</svg>
