<svg width="32" height="32" viewBox="0 0 32 32" fill="none" xmlns="http://www.w3.org/2000/svg">
<path d="M32 16C32 24.8361 24.8361 32 16 32C7.1639 32 0 24.8361 0 16C0 7.1639 7.1639 0 16 0C24.8379 0 32 7.1639 32 16Z" fill="#A7A4AF"/>
<path d="M7.89383 16.5383L7.96283 16.4297L12.1251 9.91843C12.1859 9.82313 12.3289 9.83298 12.3749 9.93648C13.0703 11.4949 13.6703 13.433 13.3892 14.6396C13.2692 15.136 12.9404 15.8084 12.5705 16.4297C12.5229 16.5202 12.4703 16.6089 12.4144 16.6944C12.3881 16.7339 12.3437 16.7569 12.296 16.7569H8.01544C7.90035 16.7569 7.83302 16.6319 7.89383 16.5383Z" fill="white"/>
<path d="M26.4464 17.7477V18.7784C26.4464 18.8376 26.4102 18.8902 26.3576 18.9132C26.0355 19.0513 24.9324 19.5576 24.4738 20.1954C23.3034 21.8245 22.4091 24.1538 20.4102 24.1538H12.0709C9.11532 24.1538 6.72021 21.7505 6.72021 18.785V18.6897C6.72021 18.6107 6.78431 18.5467 6.86322 18.5467H11.5121C11.6041 18.5467 11.6715 18.6321 11.6633 18.7225C11.6304 19.025 11.6863 19.334 11.8293 19.6151C12.1055 20.1757 12.6775 20.5259 13.2956 20.5259H15.597V18.7291H13.3219C13.2052 18.7291 13.1362 18.5943 13.2035 18.499C13.2282 18.4612 13.2562 18.4217 13.2857 18.3774C13.5011 18.0716 13.8085 17.5965 14.1143 17.0556C14.3231 16.6907 14.5252 16.3011 14.688 15.9099C14.7209 15.8392 14.7471 15.7669 14.7734 15.6962C14.8178 15.5712 14.8639 15.4545 14.8967 15.3379C14.9296 15.2392 14.9559 15.1356 14.9822 15.0387C15.0595 14.7066 15.0923 14.3548 15.0923 13.9899C15.0923 13.8469 15.0858 13.6972 15.0726 13.5543C15.0661 13.3981 15.0464 13.2419 15.0266 13.0858C15.0135 12.9476 14.9888 12.8112 14.9625 12.6682C14.9296 12.4594 14.8836 12.2523 14.831 12.0435L14.8129 11.9647C14.7734 11.8216 14.7406 11.6852 14.6946 11.5422C14.5647 11.0934 14.4151 10.6561 14.2573 10.2469C14.1997 10.0841 14.134 9.92791 14.0682 9.77179C13.9713 9.53669 13.8726 9.32296 13.7822 9.12076C13.7362 9.02871 13.6967 8.94486 13.6572 8.85941C13.6129 8.76244 13.5669 8.6654 13.5208 8.57342C13.4879 8.50269 13.4501 8.43696 13.4238 8.37115L13.1427 7.85172C13.1033 7.78106 13.169 7.69721 13.2463 7.71859L15.0053 8.19526H15.0102C15.0135 8.19526 15.0151 8.19692 15.0167 8.19692L15.2485 8.26106L15.5033 8.33339L15.597 8.3597V7.31418C15.597 6.80952 16.0014 6.40021 16.5011 6.40021C16.751 6.40021 16.9779 6.50213 17.1406 6.66815C17.3033 6.83419 17.4053 7.06103 17.4053 7.31418V8.86601L17.5927 8.91855C17.6075 8.92355 17.6223 8.93008 17.6354 8.93993C17.6815 8.9745 17.7471 9.02545 17.831 9.08792C17.8968 9.14047 17.9675 9.20461 18.0529 9.27041C18.2222 9.40681 18.4244 9.58271 18.6464 9.78491C18.7055 9.83586 18.7631 9.88848 18.8157 9.9411C19.1018 10.2074 19.4222 10.5197 19.728 10.8649C19.8135 10.9619 19.8973 11.0605 19.9828 11.1641C20.0683 11.2693 20.1587 11.3728 20.2376 11.4764C20.3411 11.6145 20.453 11.7575 20.5499 11.9071C20.596 11.9778 20.6486 12.0501 20.6929 12.1208C20.8179 12.3099 20.928 12.5055 21.0333 12.7011C21.0776 12.7915 21.1237 12.8902 21.1631 12.9871C21.2798 13.2485 21.3719 13.5148 21.431 13.7811C21.4491 13.8386 21.4623 13.9011 21.4688 13.957V13.9702C21.4886 14.049 21.4952 14.1329 21.5018 14.2183C21.528 14.4913 21.5149 14.7641 21.4557 15.0387C21.431 15.1554 21.3982 15.2655 21.3587 15.3822C21.3193 15.494 21.2798 15.6107 21.2289 15.7209C21.1302 15.9493 21.0135 16.1778 20.8754 16.3916C20.831 16.4705 20.7785 16.5543 20.7258 16.6332C20.6683 16.717 20.6091 16.7959 20.5565 16.8732C20.4842 16.9718 20.4069 17.0754 20.328 17.1675C20.2574 17.2644 20.185 17.3614 20.1061 17.4469C19.9959 17.5767 19.8907 17.7 19.7806 17.8184C19.7149 17.8957 19.6442 17.9746 19.5718 18.0453C19.5012 18.1241 19.4288 18.1948 19.3631 18.2606C19.2529 18.3708 19.1609 18.4562 19.0836 18.5269L18.9028 18.6929C18.8765 18.716 18.842 18.7291 18.8058 18.7291H17.4053V20.5259H19.1674C19.562 20.5259 19.9368 20.3861 20.2392 20.1297C20.3428 20.0393 20.7949 19.648 21.3291 19.0579C21.3472 19.0381 21.3702 19.0233 21.3965 19.0168L26.264 17.6096C26.3544 17.5833 26.4464 17.6524 26.4464 17.7477Z" fill="white"/>
</svg>
