<svg width="16" height="16" viewBox="0 0 16 16" fill="none" xmlns="http://www.w3.org/2000/svg">
<path d="M8.00004 1.33325C6.6815 1.33325 5.39257 1.72425 4.29624 2.45679C3.19991 3.18933 2.34543 4.23052 1.84085 5.4487C1.33626 6.66687 1.20424 8.00731 1.46148 9.30052C1.71871 10.5937 2.35365 11.7816 3.286 12.714C4.21835 13.6463 5.40623 14.2813 6.69944 14.5385C7.99265 14.7957 9.33309 14.6637 10.5513 14.1591C11.7694 13.6545 12.8106 12.8 13.5432 11.7037C14.2757 10.6074 14.6667 9.31846 14.6667 7.99992C14.6667 7.12444 14.4943 6.25753 14.1592 5.4487C13.8242 4.63986 13.3331 3.90493 12.7141 3.28587C12.095 2.66682 11.3601 2.17575 10.5513 1.84072C9.74243 1.50569 8.87552 1.33325 8.00004 1.33325ZM8.00004 13.3333C6.94521 13.3333 5.91406 13.0205 5.037 12.4344C4.15994 11.8484 3.47635 11.0154 3.07269 10.0409C2.66902 9.06636 2.5634 7.994 2.76919 6.95944C2.97498 5.92487 3.48293 4.97456 4.22881 4.22868C4.97469 3.4828 5.925 2.97485 6.95956 2.76906C7.99413 2.56328 9.06648 2.66889 10.041 3.07256C11.0156 3.47623 11.8485 4.15982 12.4345 5.03688C13.0206 5.91394 13.3334 6.94509 13.3334 7.99992C13.3334 9.41441 12.7715 10.771 11.7713 11.7712C10.7711 12.7713 9.41453 13.3333 8.00004 13.3333Z" fill="black"/>
<path d="M7.99996 4.00004C7.38112 4.00004 6.78763 4.24588 6.35004 4.68346C5.91246 5.12105 5.66663 5.71454 5.66663 6.33338C5.66663 6.51019 5.73686 6.67976 5.86189 6.80478C5.98691 6.92981 6.15648 7.00004 6.33329 7.00004C6.5101 7.00004 6.67967 6.92981 6.8047 6.80478C6.92972 6.67976 6.99996 6.51019 6.99996 6.33338C6.99996 6.1356 7.05861 5.94226 7.16849 5.77781C7.27837 5.61336 7.43455 5.48519 7.61728 5.4095C7.8 5.33381 8.00107 5.31401 8.19505 5.35259C8.38903 5.39118 8.56721 5.48642 8.70707 5.62627C8.84692 5.76612 8.94216 5.94431 8.98074 6.13829C9.01933 6.33227 8.99953 6.53334 8.92384 6.71606C8.84815 6.89879 8.71998 7.05497 8.55553 7.16485C8.39108 7.27473 8.19774 7.33338 7.99996 7.33338C7.82315 7.33338 7.65358 7.40362 7.52855 7.52864C7.40353 7.65366 7.33329 7.82323 7.33329 8.00004V9.33338C7.33329 9.51019 7.40353 9.67976 7.52855 9.80478C7.65358 9.92981 7.82315 10 7.99996 10C8.17677 10 8.34634 9.92981 8.47136 9.80478C8.59639 9.67976 8.66663 9.51019 8.66663 9.33338V8.56004C9.20536 8.40271 9.66907 8.05595 9.97228 7.58367C10.2755 7.11139 10.3978 6.54542 10.3166 5.99009C10.2354 5.43475 9.95621 4.92748 9.53049 4.56177C9.10476 4.19606 8.56119 3.99656 7.99996 4.00004Z" fill="black"/>
<path d="M8.00004 12.0001C8.36823 12.0001 8.66671 11.7016 8.66671 11.3334C8.66671 10.9652 8.36823 10.6667 8.00004 10.6667C7.63185 10.6667 7.33337 10.9652 7.33337 11.3334C7.33337 11.7016 7.63185 12.0001 8.00004 12.0001Z" fill="black"/>
</svg>
