<svg width="20" height="20" viewBox="0 0 20 20" fill="none" xmlns="http://www.w3.org/2000/svg">
<g clip-path="url(#clip0_103_860)">
<path d="M13.2483 2.29979C15.945 4.99651 16.2527 9.22015 14.0849 12.2606L19.6351 17.8105C20.139 18.3144 20.139 19.1314 19.6351 19.6353C19.1312 20.1392 18.3142 20.1392 17.8103 19.6353L12.2599 14.0855L12.1016 14.1954C9.07426 16.2416 4.94961 15.8986 2.29954 13.2485C-0.723871 10.2251 -0.723871 5.3232 2.29954 2.29979C5.32296 -0.723627 10.2249 -0.723627 13.2483 2.29979ZM8.06528 14.865L8.04315 14.8659C7.97966 14.8683 7.91609 14.8698 7.85256 14.8705C7.92415 14.8697 7.99474 14.8679 8.06528 14.865ZM7.04839 14.834L7.09005 14.8381C7.16852 14.8457 7.24705 14.8519 7.32569 14.8569C7.23308 14.851 7.14066 14.8434 7.04839 14.834ZM6.36992 14.7314L6.52121 14.7601C6.60721 14.7755 6.69342 14.7892 6.77984 14.8014C6.64275 14.7821 6.50602 14.7588 6.36992 14.7314ZM9.0509 14.7558L8.99128 14.7663C8.96785 14.7704 8.94442 14.7743 8.92095 14.7782C8.96418 14.7711 9.00757 14.7636 9.0509 14.7558ZM5.43667 14.4767L5.58922 14.5279C5.81407 14.6004 6.04182 14.6614 6.27155 14.711C5.98977 14.6502 5.71091 14.5721 5.43667 14.4767ZM9.72047 14.6001L9.55257 14.6456C9.45993 14.6695 9.36689 14.6915 9.27354 14.7116C9.42356 14.6793 9.57258 14.6421 9.72047 14.6001ZM10.3815 14.3765C10.3499 14.3889 10.3183 14.4011 10.2866 14.4131L10.2866 14.4131L10.3815 14.3765ZM4.95965 14.2911L5.05046 14.3296C5.02016 14.317 4.98988 14.3042 4.95973 14.2912L4.95965 14.2911ZM10.7343 14.2261L10.644 14.2667C10.5949 14.2884 10.5457 14.3095 10.4963 14.33C10.576 14.297 10.6554 14.2623 10.7343 14.2261ZM4.60549 14.1265L4.68952 14.1678L4.69653 14.1711C4.66611 14.1565 4.63574 14.1416 4.60549 14.1265ZM4.0976 13.8464L4.171 13.8903C4.27149 13.9496 4.37318 14.0062 4.47586 14.0602C4.34821 13.9931 4.22199 13.9219 4.0976 13.8464ZM11.9302 13.5278L11.8383 13.5933C11.784 13.6313 11.7293 13.6685 11.6742 13.7048L11.6843 13.6981C11.7672 13.6433 11.8492 13.5865 11.9302 13.5278ZM3.66815 3.66838C1.40059 5.93594 1.40059 9.61238 3.66815 11.8799C5.93571 14.1475 9.61214 14.1475 11.8797 11.8799C14.1473 9.61238 14.1473 5.93594 11.8797 3.66838C9.61214 1.40082 5.93571 1.40082 3.66815 3.66838ZM12.3151 13.2284L12.1588 13.3551L12.1697 13.3465L12.3151 13.2284ZM2.93785 12.9682L2.89249 12.9255C3.02844 13.0545 3.16826 13.177 3.31154 13.2932C3.1841 13.1899 3.05946 13.0816 2.93785 12.9682ZM2.75577 12.7923L2.89249 12.9255L2.8995 12.9321L2.75577 12.7923Z" fill="white"/>
</g>
<defs>
<clipPath id="clip0_103_860">
<rect width="20" height="20" fill="white"/>
</clipPath>
</defs>
</svg>
