<svg width="24" height="24" viewBox="0 0 24 24" fill="none" xmlns="http://www.w3.org/2000/svg">
<path d="M15.8985 2.76001C19.1346 5.99608 19.5038 11.0644 16.9025 14.713L23.5627 21.3729C24.1674 21.9776 24.1674 22.958 23.5627 23.5626C22.958 24.1673 21.9776 24.1673 21.373 23.5627L14.7124 16.9029L14.5224 17.0347C10.8897 19.4902 5.94009 19.0786 2.76001 15.8985C-0.868083 12.2704 -0.868083 6.38811 2.76001 2.76001C6.38811 -0.868084 12.2704 -0.868084 15.8985 2.76001ZM9.67889 17.8383L9.65234 17.8393C9.57615 17.8422 9.49987 17.844 9.42363 17.8449C9.50955 17.8439 9.59424 17.8417 9.67889 17.8383ZM8.45863 17.801L8.50863 17.806C8.60278 17.8151 8.69702 17.8226 8.79139 17.8285C8.68025 17.8215 8.56935 17.8124 8.45863 17.801ZM7.64446 17.678L7.82601 17.7124C7.92921 17.7308 8.03267 17.7473 8.13637 17.7619C7.97187 17.7388 7.80779 17.7108 7.64446 17.678ZM10.8616 17.7072L10.7901 17.7199C10.762 17.7248 10.7339 17.7295 10.7057 17.7341C10.7576 17.7256 10.8096 17.7166 10.8616 17.7072ZM6.52457 17.3723L6.70762 17.4337C6.97745 17.5208 7.25074 17.594 7.52642 17.6534C7.18829 17.5805 6.85365 17.4868 6.52457 17.3723ZM11.6651 17.5204L11.4636 17.575C11.3525 17.6036 11.2408 17.63 11.1288 17.6541C11.3088 17.6154 11.4877 17.5708 11.6651 17.5204ZM12.4583 17.252C12.4205 17.267 12.3825 17.2816 12.3445 17.296L12.3444 17.296L12.4583 17.252ZM5.95214 17.1496L6.06111 17.1957C6.02475 17.1806 5.98842 17.1653 5.95224 17.1497L5.95214 17.1496ZM12.8817 17.0716L12.7734 17.1204C12.7145 17.1464 12.6555 17.1717 12.5961 17.1963C12.6918 17.1566 12.787 17.115 12.8817 17.0716ZM5.52715 16.9521L5.62799 17.0016L5.6364 17.0056C5.59989 16.9881 5.56345 16.9702 5.52715 16.9521ZM4.91768 16.616L5.00576 16.6687C5.12635 16.7398 5.24837 16.8078 5.37159 16.8724C5.21841 16.792 5.06694 16.7065 4.91768 16.616ZM14.3168 16.2337L14.2065 16.3122C14.1414 16.3578 14.0757 16.4024 14.0096 16.446L14.0217 16.438C14.1212 16.3722 14.2195 16.3041 14.3168 16.2337ZM4.40234 4.40232C1.68126 7.1234 1.68126 11.5351 4.40234 14.2562C7.12341 16.9773 11.5351 16.9773 14.2562 14.2562C16.9773 11.5351 16.9773 7.1234 14.2562 4.40232C11.5351 1.68125 7.12341 1.68125 4.40234 4.40232ZM14.7786 15.8743L14.5911 16.0264L14.6042 16.0161L14.7786 15.8743ZM3.52598 15.5621L3.47155 15.5109C3.63469 15.6657 3.80247 15.8127 3.97441 15.9521C3.82148 15.8281 3.67191 15.6982 3.52598 15.5621ZM3.30749 15.3511L3.47155 15.5109L3.47996 15.5188L3.30749 15.3511Z" fill="#1C1C1F"/>
</svg>
