<svg width="24" height="24" viewBox="0 0 24 24" fill="none" xmlns="http://www.w3.org/2000/svg">
<path d="M23.979 9.26969C23.9283 9.11418 23.7938 9.00076 23.6319 8.97714L15.8606 7.84774L12.3852 0.805874C12.313 0.658954 12.1635 0.566162 12.0002 0.566162C11.837 0.566162 11.6871 0.658954 11.6153 0.805874L8.1395 7.84817L0.368188 8.97757C0.206232 9.00119 0.0721996 9.11418 0.0210782 9.27012C-0.0291841 9.4252 0.0124863 9.59618 0.129765 9.71002L5.75355 15.1916L4.42568 22.932C4.39819 23.0931 4.46435 23.2559 4.59623 23.3521C4.72897 23.4492 4.90468 23.4617 5.04859 23.3848L12.0002 19.7307L18.951 23.3848C19.0138 23.4179 19.0829 23.4342 19.1512 23.4342C19.2402 23.4342 19.3286 23.4067 19.4038 23.3521C19.5361 23.2559 19.6023 23.0931 19.5744 22.932L18.2469 15.192L23.8707 9.71002C23.9876 9.59532 24.0297 9.42477 23.979 9.26969Z" fill="#232323"/>
</svg>
