<svg width="32" height="32" viewBox="0 0 32 32" fill="none" xmlns="http://www.w3.org/2000/svg">
<g clip-path="url(#clip0_102_169)">
<path d="M31.2749 6.02359C30.7721 6.24656 30.2553 6.43474 29.7272 6.58751C30.3524 5.88041 30.8291 5.04841 31.1201 4.13796C31.1854 3.93388 31.1177 3.7105 30.95 3.57703C30.7825 3.44346 30.5497 3.42746 30.3652 3.53677C29.2437 4.20196 28.0337 4.68 26.7649 4.95954C25.4869 3.71071 23.751 3 21.9566 3C18.1687 3 15.087 6.0816 15.087 9.86937C15.087 10.1677 15.1059 10.4644 15.1432 10.7569C10.4429 10.3442 6.073 8.03391 3.07223 4.35298C2.96529 4.22178 2.80054 4.15107 2.63187 4.16459C2.46309 4.17781 2.31145 4.27298 2.22619 4.41925C1.61757 5.46359 1.29582 6.65801 1.29582 7.87329C1.29582 9.52852 1.88678 11.099 2.93071 12.3261C2.61329 12.2162 2.30526 12.0788 2.01127 11.9156C1.85344 11.8278 1.66082 11.8291 1.50402 11.919C1.34712 12.0089 1.24874 12.1743 1.24462 12.355C1.24389 12.3855 1.24389 12.4159 1.24389 12.4468C1.24389 14.9175 2.57365 17.1419 4.60668 18.3543C4.43202 18.3369 4.25747 18.3116 4.08405 18.2785C3.90526 18.2443 3.72142 18.3069 3.60085 18.4433C3.48007 18.5796 3.44013 18.7695 3.49576 18.9429C4.24828 21.2923 6.18572 23.0204 8.52792 23.5473C6.58531 24.764 4.36379 25.4013 2.03171 25.4013C1.54511 25.4013 1.05571 25.3728 0.576744 25.3161C0.338809 25.2878 0.111299 25.4283 0.0302671 25.6546C-0.0507652 25.8809 0.0351187 26.1333 0.237544 26.2631C3.23347 28.184 6.69762 29.1993 10.2553 29.1993C17.2493 29.1993 21.6245 25.9013 24.0632 23.1345C27.1042 19.6846 28.8483 15.1182 28.8483 10.6063C28.8483 10.4178 28.8454 10.2275 28.8397 10.0377C30.0395 9.13378 31.0724 8.03979 31.913 6.7824C32.0407 6.59143 32.0269 6.33905 31.8789 6.16325C31.7312 5.98736 31.485 5.93048 31.2749 6.02359Z" fill="#A7A4AF"/>
</g>
<defs>
<clipPath id="clip0_102_169">
<rect width="32" height="32" fill="white"/>
</clipPath>
</defs>
</svg>
