<svg width="32" height="32" viewBox="0 0 32 32" fill="none" xmlns="http://www.w3.org/2000/svg">
<path d="M3.6032 12.8C3.33465 13.8454 3.19918 14.9206 3.2 16C3.2 17.104 3.3408 18.176 3.6032 19.2H8.16C7.94429 17.0721 7.94429 14.9279 8.16 12.8H3.6032ZM4.912 9.6H8.6656C9.0912 7.6528 9.7056 5.9088 10.4592 4.4576C8.13629 5.57667 6.20355 7.36837 4.912 9.6ZM28.3968 12.8H23.84C24.0557 14.9279 24.0557 17.0721 23.84 19.2H28.3968C28.6592 18.176 28.8 17.104 28.8 16C28.8 14.896 28.6592 13.824 28.3968 12.8ZM27.088 9.6C25.7965 7.36837 23.8637 5.57667 21.5408 4.4576C22.296 5.9088 22.9088 7.6528 23.3344 9.6H27.088ZM11.3792 12.8C11.2593 13.8624 11.1995 14.9308 11.2 16C11.2 17.096 11.2608 18.168 11.3792 19.2H20.6208C20.8618 17.0735 20.8618 14.9265 20.6208 12.8H11.3792ZM11.952 9.6H20.048C19.7568 8.39728 19.3368 7.22946 18.7952 6.1168C17.7904 4.1088 16.7152 3.2 16 3.2C15.2832 3.2 14.2096 4.1088 13.2048 6.1168C12.7008 7.128 12.2768 8.304 11.952 9.6ZM4.912 22.4C6.20355 24.6316 8.13629 26.4233 10.4592 27.5424C9.704 26.0912 9.0912 24.3472 8.6656 22.4H4.912ZM27.088 22.4H23.3344C22.9088 24.3472 22.2944 26.0912 21.5408 27.5424C23.8637 26.4233 25.7965 24.6316 27.088 22.4ZM11.952 22.4C12.2768 23.696 12.7008 24.872 13.2048 25.8832C14.2096 27.8912 15.2848 28.8 16 28.8C16.7168 28.8 17.7904 27.8912 18.7952 25.8832C19.2992 24.872 19.7232 23.696 20.048 22.4H11.952ZM16 32C7.1632 32 0 24.8368 0 16C0 7.1632 7.1632 0 16 0C24.8368 0 32 7.1632 32 16C32 24.8368 24.8368 32 16 32Z" fill="#A7A4AF"/>
</svg>
